<?xml version="1.0" encoding="utf-8"?>
<!-- Generator: Adobe Illustrator 26.0.0, SVG Export Plug-In . SVG Version: 6.00 Build 0)  -->
<svg version="1.1" id="Layer_1" xmlns="http://www.w3.org/2000/svg" xmlns:xlink="http://www.w3.org/1999/xlink" x="0px" y="0px"
	 viewBox="0 0 229.9 57.5" style="enable-background:new 0 0 229.9 57.5;" xml:space="preserve">
<style type="text/css">
	.st0{fill:#FFFFFF;}
</style>
<path class="st0" d="M62.3,0H0v9.6h59.2c1.7,0,3.1,1.4,3.1,3.1c0,0,0,0,0,0v32.2c0,1.7-1.4,3.1-3.1,3.1H12.7c-1.7,0-3.1-1.4-3.1-3.1
	c0,0,0,0,0,0v-13c0-1.7,1.4-3.1,3.1-3.1h40v-9.5H9.6c-5.3,0-9.5,4.3-9.6,9.5v19.2c0,5.3,4.3,9.5,9.6,9.5h52.8c5.3,0,9.5-4.3,9.5-9.5
	c0,0,0,0,0,0V9.6C71.9,4.3,67.6,0,62.3,0"/>
<path class="st0" d="M97.8,29.8h6.5l-3.2-9.6H101L97.8,29.8z M107.2,13.6l7.5,22.3c0.9,2.7,1.5,3.3,3.1,3.3h1.5v3.9H103v-3.9h1.3
	c1.3,0,2.5-0.2,2.5-0.7c0-0.5-0.1-1.1-0.2-1.6l-0.9-3.2h-9.1L96,35.5c-0.4,0.9-0.6,1.9-0.7,2.8c0,0.7,1.6,0.9,2.8,0.9h1.3v3.9H86.2
	v-3.9h1.5c1.6,0,2.2-0.6,3.1-3.3l7.5-22.3H107.2z"/>
<path class="st0" d="M129.3,32.7c0,4.6,1,7.3,3.5,7.3s3.5-2.7,3.5-7.3s-1-7.3-3.5-7.3S129.3,28.2,129.3,32.7 M121.9,19.1
	c0-1.3-0.3-1.9-1.6-1.9h-2.1v-3.6h11.1v11.1c1.4-1.8,3.5-2.9,5.8-3.1c6.7,0,9.2,5.2,9.2,11.1s-2.5,11.1-9.2,11.1
	c-2.7,0.2-5.4-1.1-6.9-3.5l-1.3,2.8h-5L121.9,19.1z"/>
<path class="st0" d="M154.4,32.7c0,4.6,1,7.3,3.5,7.3s3.5-2.7,3.5-7.3s-1-7.3-3.5-7.3S154.4,28.2,154.4,32.7 M146.9,19.1
	c0-1.3-0.3-1.9-1.6-1.9h-2.1v-3.6h11.1v11.1c1.4-1.8,3.5-2.9,5.8-3.1c6.7,0,9.2,5.2,9.2,11.1s-2.5,11.1-9.2,11.1
	c-2.7,0.2-5.4-1.1-6.9-3.5l-1.2,2.8h-5L146.9,19.1z"/>
<path class="st0" d="M179.4,32.7c0,5.3,0.9,7.5,3.6,7.5s3.6-2.3,3.6-7.5s-0.9-7.5-3.6-7.5S179.4,27.5,179.4,32.7 M194.5,32.7
	c0,7.2-4.9,11.1-11.5,11.1s-11.5-4-11.5-11.1s4.9-11.1,11.5-11.1S194.5,25.6,194.5,32.7"/>
<path class="st0" d="M226.4,33.1v3.5c0,2-0.4,3.3-2.1,3.3c-0.8,0-1.5-0.6-1.5-1.5c0-0.1,0-0.2,0-0.2V25.9h5.5v-3.6h-5.5V14h-4.4
	c-0.4,3.7-1.5,8.3-6,8.3h-7V14h-4.4c-0.4,3.7-1.5,8.3-6,8.3v3.6h3v11.2c0,4.5,2.5,6.8,7.1,6.8c5.4,0,7.5-2.4,7.5-6.8v-4H209v3.5
	c0,2-0.4,3.3-2.1,3.3c-0.8,0-1.5-0.6-1.5-1.5c0-0.1,0-0.1,0-0.2V25.9h10v11.2c0,4.5,2.5,6.8,7.1,6.8c5.4,0,7.5-2.4,7.5-6.8v-4
	L226.4,33.1z"/>
</svg>
